<?xml version="1.0" encoding="UTF-8"?>
<svg width="170px" height="69px" viewBox="0 0 170 69" version="1.1" xmlns="http://www.w3.org/2000/svg" xmlns:xlink="http://www.w3.org/1999/xlink"><title>Generation Logo</title> <g id="Page-1" stroke="none" stroke-width="1" fill="none" fill-rule="evenodd"> <g id="Generation_Mexico_logo_ORANGE" fill="#FF6640" fill-rule="nonzero"> <path d="M169.638298,17.8439716 C169.879433,18.748227 168.975177,19.7730496 168.734043,20.7375887 C169.095745,21.5815603 168.794326,21.9432624 168.251773,22.9680851 C166.684397,25.5602837 166.021277,28.9361702 163.851064,31.8297872 C163.911348,30.0212766 164.996454,28.1524823 166.08156,26.5851064 C164.152482,27.9716312 163.12766,30.5035461 163.489362,32.3120567 C163.79078,32.3723404 163.549645,32.0106383 163.851064,31.8297872 C164.092199,31.8900709 163.851064,32.4326241 164.152482,32.070922 C164.27305,32.251773 163.851064,32.6134752 163.730496,32.6134752 C163.489362,33.6382979 164.031915,34.3617021 164.393617,35.2056738 C164.453901,35.3262411 164.212766,35.4468085 164.27305,35.5673759 C164.453901,36.1702128 165.41844,36.8333333 166.322695,37.4964539 C166.744681,37.3758865 167.22695,37.6170213 167.70922,37.7978723 C166.382979,38.4609929 164.996454,39.2446809 163.429078,38.4007092 C163.12766,38.2801418 163.489362,38.0390071 163.429078,37.9184397 C162.042553,37.0744681 161.98227,35.9893617 161.198582,35.0851064 C161.5,34.8439716 161.01773,34.4822695 161.439716,34.4219858 C161.138298,33.0957447 161.258865,31.7695035 161.138298,30.3829787 C161.921986,29.2978723 161.921986,28.2730496 162.343972,27.1879433 C162.404255,26.8865248 162.042553,27.1276596 162.102837,26.8865248 C163.187943,24.2340426 163.730496,21.822695 164.815603,18.9893617 C164.152482,18.9893617 163.79078,19.4113475 163.187943,19.5319149 C163.067376,19.5319149 162.826241,19.3510638 162.64539,19.4113475 C161.620567,19.8333333 161.01773,21.4007092 159.932624,21.7624113 C160.173759,21.0390071 161.01773,20.5567376 161.5,19.8333333 C160.535461,20.0141844 159.751773,21.5212766 158.847518,22.0638298 C159.390071,20.6170213 160.836879,19.5319149 161.861702,18.0851064 C161.620567,17.9042553 161.379433,18.2056738 161.198582,18.3262411 C161.319149,17.5425532 162.163121,17.1808511 162.585106,16.6382979 C160.716312,17.4822695 159.570922,19.7730496 157.702128,21.9432624 C158.003546,21.9432624 158.184397,21.2801418 158.485816,21.0390071 C158.847518,22.2446809 156.496454,23.5106383 156.496454,24.7765957 C156.978723,24.5957447 157.039007,23.5106383 157.702128,23.6914894 C157.340426,23.9929078 157.099291,24.4148936 156.978723,24.8971631 C155.833333,25.0780142 156.074468,26.7659574 155.411348,27.5496454 C155.471631,27.7907801 155.351064,28.0319149 155.531915,28.2730496 C153.723404,31.3475177 152.51773,34.7234043 149.865248,37.677305 C149.744681,37.5567376 149.985816,37.3156028 149.865248,37.1950355 C149.322695,36.893617 148.960993,37.9184397 148.478723,37.9184397 C148.117021,37.677305 148.358156,37.3758865 148.358156,37.0744681 C146.730496,37.1950355 146.248227,35.2659574 146.067376,34.3014184 C146.429078,33.8191489 146.609929,33.2765957 146.609929,32.7340426 C150.528369,27.8510638 152.336879,23.0886525 154.687943,18.3262411 C154.386525,18.4468085 154.024823,18.2056738 153.663121,18.3262411 C154.326241,17.6631206 154.868794,17.5425532 155.29078,16.9397163 C156.074468,15.8546099 155.893617,13.9255319 157.280142,12.8404255 C158.003546,13.141844 158.666667,13.5638298 159.329787,14.0460993 C159.390071,14.7092199 159.390071,15.3120567 159.269504,15.9751773 C159.450355,16.035461 159.691489,16.4574468 159.812057,16.0957447 C159.87234,16.2765957 159.812057,16.4574468 159.631206,16.6985816 C159.87234,16.6985816 160.053191,16.2163121 160.234043,16.1560284 C160.595745,16.2163121 160.113475,16.4574468 160.414894,16.5177305 C160.716312,16.4574468 160.957447,16.3368794 161.198582,16.0957447 C161.439716,16.4574468 161.620567,16.2163121 161.861702,16.3368794 C162.585106,15.4326241 163.670213,14.8297872 164.815603,14.8297872 C165.056738,14.5283688 164.996454,14.2269504 165.358156,14.2269504 C165.719858,14.2269504 165.539007,14.5283688 165.358156,14.7092199 C165.780142,14.7695035 165.840426,14.5283688 165.900709,14.106383 C166.56383,14.8297872 167.166667,14.5283688 167.588652,14.8297872 C167.890071,14.8900709 167.648936,14.5283688 167.890071,14.5886525 C168.070922,15.1312057 168.492908,15.6134752 169.035461,15.9148936 C168.673759,16.3368794 169.095745,16.6382979 168.673759,17.1205674 L169.156028,17.4822695 C169.035461,17.7836879 168.975177,18.0851064 169.035461,18.3262411 C169.276596,18.4468085 169.397163,17.964539 169.638298,17.8439716" id="Path"></path> <path d="M168.070922,24.2943262 C168.131206,24.4751773 168.070922,24.6560284 167.890071,24.8971631 C167.528369,24.7765957 168.010638,24.535461 168.070922,24.2943262" id="Path"></path> <path d="M166.08156,26.5851064 C164.93617,28.1524823 163.911348,30.0815603 163.851064,31.8297872 C163.549645,31.9503546 163.79078,32.3723404 163.489362,32.3120567 C163.12766,30.5035461 164.152482,27.9113475 166.08156,26.5851064" id="Path"></path> <path d="M145.826241,25.1985816 C146.007092,24.7765957 146.911348,24.1737589 146.489362,23.8120567 C146.308511,24.2340426 145.765957,24.7765957 145.826241,25.1985816 M148.358156,22.5460993 C148.900709,21.9432624 149.141844,21.2198582 149.141844,20.4361702 C148.780142,21.0992908 148.478723,21.822695 148.358156,22.5460993 M151.070922,17.6631206 C151.191489,18.748227 149.382979,20.0141844 149.503546,21.1595745 C149.804965,21.4007092 149.985816,20.7375887 150.22695,20.677305 C149.624113,21.5212766 149.322695,22.9078014 148.41844,23.4503546 C147.574468,25.6808511 146.248227,27.7907801 144.560284,29.5390071 C144.379433,29.7801418 144.680851,29.9609929 144.680851,30.2021277 C144.258865,31.106383 143.656028,30.9255319 143.173759,31.7092199 C142.87234,31.4680851 143.475177,31.4078014 143.294326,31.1666667 C142.510638,31.8297872 141.847518,33.0957447 141.06383,34 C141.666667,33.8794326 142.148936,32.8546099 142.751773,33.035461 C142.269504,34.2411348 140.460993,35.1453901 139.43617,36.1702128 C139.375887,36.5921986 139.134752,37.0141844 138.77305,37.2553191 C138.531915,37.0141844 138.712766,36.712766 138.893617,36.4113475 C138.170213,37.0141844 137.386525,37.1950355 136.663121,37.7375887 C136.542553,37.6170213 136.783688,37.3758865 136.663121,37.2553191 C135.216312,37.9787234 133.588652,37.0744681 132.141844,36.712766 C130.333333,33.6382979 130.393617,29.4787234 133.468085,26.1028369 C134.070922,23.8723404 135.578014,21.5815603 137.386525,19.3510638 C139.195035,17.1205674 140.58156,13.9255319 143.053191,13.141844 C144.439716,14.1666667 145.524823,15.251773 145.524823,16.5177305 C143.113475,18.3262411 140.943262,20.5567376 139.195035,22.9680851 C139.677305,23.2695035 140.58156,22.2446809 141.06383,21.4007092 C141.184397,22.4858156 138.652482,23.4503546 138.953901,24.7765957 C138.29078,25.3794326 137.748227,26.1028369 137.265957,26.8865248 C137.507092,27.0673759 137.567376,26.2234043 137.868794,26.5851064 C137.024823,28.393617 135.819149,29.358156 134.914894,31.106383 C135.276596,30.9858156 135.578014,30.2624113 135.939716,29.9007092 C135.879433,30.8652482 135.035461,32.0106383 134.794326,32.9751773 C135.638298,32.5531915 136.361702,32.251773 137.205674,31.7695035 C138.351064,31.106383 139.134752,29.9609929 140.280142,29.0567376 C141.124113,28.4539007 142.450355,28.1524823 142.932624,26.9468085 C143.173759,26.7056738 143.475177,26.7659574 143.716312,26.5248227 C145.946809,23.9929078 147.93617,21.2198582 148.960993,18.3865248 C149.443262,18.2659574 149.56383,17.9042553 150.22695,17.3617021 C149.985816,17.0602837 149.865248,17.6631206 149.56383,17.3617021 C149.684397,16.8191489 150.22695,16.6382979 150.588652,16.2765957 C151.131206,16.5177305 149.925532,17.6631206 150.046099,18.2056738 C150.588652,18.4468085 150.769504,17.7234043 151.070922,17.6631206" id="Shape"></path> <path d="M149.202128,25.1382979 C149.262411,25.5602837 149.021277,25.9822695 148.599291,26.1631206 C148.539007,25.8617021 149.021277,25.5 149.202128,25.1382979" id="Path"></path> <path d="M144.319149,31.7092199 C144.439716,32.1914894 143.897163,32.3120567 143.776596,32.7943262 C143.475177,32.5531915 144.198582,32.070922 144.319149,31.7092199" id="Path"></path> <path d="M143.294326,32.4929078 C143.656028,32.6134752 143.173759,33.1560284 142.992908,32.7340426 C143.113475,32.6134752 143.173759,32.3723404 143.294326,32.4929078" id="Path"></path> <path d="M133.829787,5.90780142 C135.336879,5.90780142 136.783688,7.71631206 136.843972,8.86170213 C135.819149,9.5248227 134.734043,9.76595745 134.432624,11.2730496 C133.588652,9.58510638 133.70922,7.71631206 133.829787,5.90780142" id="Path"></path> <path d="M121.712766,33.5780142 C122.496454,32.3120567 123.822695,31.106383 124.003546,29.7801418 C123.099291,30.9255319 122.014184,32.1914894 121.712766,33.5780142 M128.464539,19.2907801 C128.886525,19.9539007 128.524823,20.677305 128.765957,21.3404255 C128.64539,21.7021277 128.464539,22.3049645 128.102837,22.4255319 C128.343972,22.7269504 128.524823,22.3049645 128.765957,22.6666667 C128.404255,23.3900709 127.741135,24.1737589 127.98227,24.7765957 C125.450355,28.2730496 122.43617,32.7943262 120.989362,36.6524823 C120.567376,36.4716312 120.14539,36.2907801 119.783688,36.7730496 C119.301418,36.5921986 119.843972,36.2304965 119.361702,35.9893617 C118.939716,35.748227 118.578014,36.2304965 118.216312,36.3510638 C117.794326,35.6276596 117.432624,34.8439716 117.070922,34.0602837 C117.914894,31.5283688 119.421986,28.8758865 120.507092,26.3439716 C121.170213,25.1985816 121.953901,24.2943262 122.496454,23.2695035 C122.677305,22.9680851 122.617021,22.6666667 122.797872,22.3652482 C123.460993,21.2198582 124.365248,20.3156028 124.787234,19.1702128 C125.028369,18.4468085 124.847518,17.5425532 125.87234,17.3617021 C126.897163,17.8439716 127.741135,18.5070922 128.464539,19.2907801" id="Shape"></path> <path d="M90.7269504,25.6808511 C90.9078014,25.4397163 91.4503546,25.3191489 91.3900709,24.9574468 C91.2092199,24.9574468 90.6666667,25.3191489 90.7269504,25.6808511 M100.010638,16.2765957 C99.0460993,16.6382979 97.9609929,16.5780142 97.1170213,17.8439716 C96.393617,18.0851064 95.9113475,18.6879433 95.7304965,19.4113475 C93.7411348,20.7978723 92.9574468,22.787234 91.5106383,24.7163121 C91.6914894,24.6560284 91.8120567,24.3546099 92.0531915,24.3546099 C91.8120567,25.7411348 90.1241135,26.8865248 89.8829787,28.212766 C89.822695,28.2730496 89.7624113,28.4539007 89.8829787,28.3333333 C90.0638298,27.9716312 90.1241135,27.9113475 90.4255319,27.9113475 C90.4858156,28.5141844 89.5815603,29.2978723 89.7624113,29.8404255 C93.6808511,26.5248227 97.5390071,20.9787234 100.010638,16.2765957 M102.120567,27.3085106 C102.241135,27.0673759 102.060284,26.8865248 101.939716,26.7056738 C101.638298,26.8865248 102.180851,26.9468085 101.879433,27.1276596 L102.120567,27.3085106 M111.886525,20.0744681 C112.670213,18.8085106 114.056738,18.2659574 114.117021,17.2411348 C113.393617,18.0851064 112.308511,18.9893617 111.886525,20.0744681 M128.524823,11.5744681 C128.163121,11.7553191 128.223404,12.2978723 127.801418,12.4184397 C127.560284,11.8156028 127.921986,11.0921986 126.957447,10.5496454 C124.365248,10.5496454 122.255319,13.8049645 119.723404,15.1312057 C118.638298,15.7340426 117.070922,15.7943262 116.046099,17.6028369 C116.70922,17.3617021 117.131206,16.2163121 117.975177,16.2765957 C116.588652,18.4468085 114.960993,20.3758865 113.092199,22.0638298 C113.574468,20.7978723 114.719858,19.9539007 115.382979,18.5673759 C113.453901,20.4964539 111.64539,22.606383 110.138298,24.8971631 C110.560284,24.5957447 110.98227,24.1737589 111.343972,23.8120567 C111.283688,24.8971631 110.078014,26.1631206 109.656028,27.248227 C110.078014,27.248227 110.379433,26.464539 110.741135,26.1028369 C110.680851,26.4042553 110.5,27.1276596 110.198582,27.0673759 C109.35461,28.8758865 109.535461,30.5035461 108.992908,32.251773 C109.113475,32.251773 109.294326,32.1914894 109.414894,32.070922 C109.535461,32.8546099 108.450355,33.4574468 108.269504,34.3014184 C108.088652,35.8085106 108.148936,37.9184397 106.340426,38.641844 C105.858156,38.4609929 105.375887,38.5815603 105.014184,38.9432624 C104.712766,38.641844 104.471631,38.641844 104.230496,38.8829787 C103.024823,38.2801418 103.326241,37.4964539 102.48227,36.893617 C102.542553,36.2304965 102.241135,35.6276596 102.48227,34.9042553 C101.156028,34.5425532 100.010638,33.6985816 99.2269504,32.5531915 C99.287234,32.4326241 99.4680851,32.4326241 99.5283688,32.3120567 C98.8652482,31.5886525 98.9255319,30.7446809 98.3829787,30.0212766 C98.4432624,28.8758865 98.4432624,27.7304965 98.2624113,26.6453901 C98.3829787,26.3439716 98.0815603,26.8262411 97.9609929,26.5851064 C97.8404255,26.2836879 97.8404255,26.1028369 98.2021277,25.7411348 C97.9007092,25.8617021 97.8404255,25.6808511 97.7801418,25.4397163 C96.5744681,26.8865248 96.5141844,28.1524823 95.248227,29.5992908 C95.1879433,29.7198582 95.4893617,29.7801418 95.3687943,29.9609929 C93.9219858,32.7943262 91.570922,35.0851064 88.7375887,36.5319149 C88.4361702,36.4716312 89.1595745,36.4113475 89.2198582,36.0496454 C88.677305,35.6276596 87.5319149,36.0496454 87.3510638,35.2056738 C87.0496454,34.964539 86.8687943,35.2659574 86.5673759,35.1453901 C86.1453901,34.1808511 85.3617021,33.2765957 85.2411348,32.251773 C85.4219858,30.7446809 85.6028369,29.177305 85.7836879,27.6099291 C87.4716312,25.0780142 88.1347518,22.1843972 90.0638298,19.5319149 C90.6666667,18.748227 91.2695035,17.6028369 91.9929078,16.7588652 C93.3191489,15.1914894 95.0070922,13.141844 96.8758865,12.6595745 C98.0815603,13.4432624 99.1666667,14.287234 100.131206,15.251773 C100.312057,15.4929078 100.312057,15.7943262 100.191489,16.035461 C100.553191,16.035461 100.734043,15.251773 101.156028,15.7340426 C101.216312,15.5531915 101.698582,15.251773 101.336879,15.1312057 C101.457447,14.8297872 101.758865,15.3723404 101.879433,15.070922 C102.180851,15.6134752 102.542553,15.4326241 102.904255,15.8546099 C103.808511,16.8191489 103.205674,17.9042553 103.567376,19.0496454 C103.265957,19.3510638 103.085106,19.7730496 103.085106,20.1950355 C103.446809,20.3156028 103.265957,19.5921986 103.507092,19.7730496 C103.929078,20.4964539 103.024823,21.4609929 103.446809,22.1843972 C103.265957,22.4255319 103.326241,22.6666667 103.024823,22.9680851 C102.964539,23.0886525 103.14539,23.1489362 103.265957,23.2695035 C102.48227,24.4148936 102.723404,25.3794326 102,26.5248227 C102.542553,26.7056738 102.361702,25.8617021 102.723404,25.5602837 C102.602837,27.6099291 101.457447,29.8404255 101.879433,31.8297872 L103.386525,32.9148936 C103.929078,32.7943262 104.230496,31.7695035 104.351064,31.287234 C106.340426,26.3439716 110.138298,21.4609929 112.248227,16.4574468 C110.921986,16.8191489 109.656028,17.5425532 108.088652,16.3971631 C108.028369,15.7943262 107.124113,15.3120567 107.124113,14.7092199 C109.897163,13.2021277 112.670213,11.6347518 115.624113,11.0319149 C117.492908,7.4751773 119.48227,3.67730496 121.411348,0.241134752 C124.184397,2.04964539 121.109929,4.76241135 121.471631,6.93262411 C120.687943,7.71631206 120.929078,8.31914894 120.929078,8.9822695 C121.170213,9.10283688 121.351064,8.86170213 121.592199,9.22340426 C121.893617,8.9822695 122.195035,9.22340426 122.617021,9.22340426 C122.737589,9.22340426 122.858156,9.04255319 123.039007,9.04255319 C123.159574,9.04255319 123.280142,9.28368794 123.340426,9.28368794 C124.304965,9.28368794 125.932624,9.10283688 126.897163,9.64539007 C127.861702,9.82624113 128.464539,10.6099291 128.524823,11.5744681" id="Shape"></path> <path d="M113.574468,23.570922 C113.152482,24.4148936 112.609929,25.2588652 112.007092,26.0425532 C112.007092,25.9219858 111.946809,25.7411348 111.946809,25.6205674 C112.429078,25.0177305 113.212766,23.6914894 113.574468,23.570922" id="Path"></path> <path d="M80.1170213,18.8687943 C80.6595745,17.964539 81.6241135,17.4219858 81.9255319,16.5780142 C81.141844,17.1808511 80.5390071,17.964539 80.1170213,18.8687943 M82.7092199,15.9148936 C82.8900709,15.5531915 83.251773,15.5531915 83.070922,15.1914894 C83.0106383,15.4929078 82.5886525,15.7340426 82.7092199,15.9148936 M84.4574468,13.2624113 C84.1560284,12.9609929 83.9751773,13.6241135 83.6737589,13.6843972 C83.9751773,13.8652482 84.2163121,13.3829787 84.4574468,13.2624113 M93.3191489,10.0673759 C93.3191489,10.4893617 93.0780142,10.8510638 92.7765957,11.1524823 C91.0283688,10.3687943 89.641844,12.0567376 88.1347518,12.7198582 C88.0141844,12.9007092 88.0744681,13.0815603 87.8333333,13.322695 C87.5921986,13.5035461 87.9539007,12.9609929 88.0141844,12.8404255 C87.8333333,12.5390071 87.7730496,13.0815603 87.5921986,12.7801418 C86.2056738,14.106383 84.6985816,14.5283688 83.3723404,16.1560284 C84.8191489,15.3120567 86.2056738,14.3475177 87.5319149,13.2624113 C87.2907801,14.287234 85.7836879,14.8297872 85,15.4929078 C83.3120567,18.0851064 80.4184397,20.7375887 78.4893617,23.6914894 C78.5496454,23.3297872 78.4893617,23.0886525 78.0673759,23.0886525 C78.1879433,22.787234 78.429078,22.4255319 78.429078,22.1241135 C78.0673759,22.9078014 76.4397163,24.535461 77.1631206,25.3794326 C77.3439716,25.3191489 77.5851064,24.6560284 77.9468085,24.3546099 C77.8262411,25.1382979 76.6808511,26.2836879 76.1985816,27.3687943 C76.6205674,27.429078 76.7411348,26.8262411 76.9822695,26.464539 C76.7411348,28.0319149 75.7765957,29.7198582 75.1134752,31.4078014 C74.9326241,31.5886525 75.535461,31.6489362 75.2943262,31.7695035 C74.8723404,33.2163121 74.3297872,34.6028369 73.7269504,35.929078 C73.0638298,35.6276596 73.3049645,35.2056738 73.1843972,34.7836879 C72.7021277,35.1453901 72.3404255,35.8687943 71.7375887,35.6879433 C71.677305,35.5070922 71.7375887,35.3262411 71.677305,35.1453901 C71.4361702,34.8439716 71.3156028,35.2659574 71.0744681,34.964539 C70.6524823,34.4822695 70.5319149,33.9397163 70.0496454,33.5177305 C70.4113475,32.6737589 69.5673759,32.1914894 69.8687943,31.4078014 C69.929078,31.1666667 70.2304965,30.9858156 70.3510638,30.7446809 C70.5921986,30.0815603 70.7730496,29.358156 71.0744681,28.6950355 C72.7624113,25.3191489 73.3652482,21.4007092 74.9929078,17.964539 C75.0531915,17.3014184 74.9326241,16.6985816 74.6312057,16.0957447 C75.0531915,15.6134752 75.6560284,16.1560284 76.0780142,15.6737589 C76.6205674,16.2765957 77.5851064,16.0957447 77.7056738,16.8191489 C78.3085106,16.5780142 78.7907801,16.1560284 79.1524823,15.6737589 C82.1666667,14.7092199 84.8794326,11.9964539 87.8333333,10.9113475 C88.0141844,10.6702128 87.6524823,10.5496454 88.0141844,10.3085106 C88.9787234,9.82624113 90.0638298,9.58510638 91.1489362,9.58510638 C91.9929078,9.82624113 92.6560284,9.40425532 93.3191489,10.0673759" id="Shape"></path> <path d="M90.3049645,12.9007092 C89.822695,14.106383 88.1347518,14.3475177 87.2304965,15.4326241 C86.929078,15.9751773 86.5070922,16.3971631 86.0248227,16.7588652 C85.9042553,16.8191489 85.6631206,16.6985816 85.5425532,16.7588652 C85.1808511,17 84.7588652,17.6028369 84.2163121,18.0248227 C83.6134752,18.5070922 82.8900709,18.6879433 82.8900709,19.2907801 C82.4078014,19.2907801 82.106383,20.0744681 81.6843972,20.3758865 C83.1914894,17.0602837 86.2056738,15.7340426 88.4964539,13.3829787 C88.9787234,13.8049645 89.7021277,13.0815603 90.3049645,12.9007092" id="Path"></path> <path d="M85.7234043,17.4219858 C85.2411348,17.9042553 85.3014184,18.5673759 84.6985816,18.8085106 C84.9397163,18.3262411 85.0602837,17.4219858 85.7234043,17.4219858" id="Path"></path> <path d="M83.070922,19.2304965 C83.0106383,19.5921986 82.8900709,19.893617 82.6489362,20.1347518 C82.3475177,19.712766 82.7092199,19.5319149 83.070922,19.2304965" id="Path"></path> <path d="M82.287234,20.3156028 C82.3475177,20.6170213 82.106383,21.2801418 81.6843972,21.0992908 C81.6843972,20.7375887 82.106383,20.5567376 82.287234,20.3156028" id="Path"></path> <path d="M81.2624113,21.5212766 C81.6241135,21.641844 81.141844,21.9432624 81.0212766,22.0035461 C80.8404255,21.8829787 81.0815603,21.4609929 81.2624113,21.5212766" id="Path"></path> <path d="M72.9432624,15.9751773 C73.1843972,16.1560284 73.3049645,15.7943262 73.5460993,16.1560284 C72.2801418,18.5070922 70.8333333,23.3900709 67.8794326,24.5957447 C67.6985816,24.8368794 67.8794326,24.9574468 67.6985816,25.1985816 C66.9148936,25.6808511 66.1914894,26.2234043 65.5283688,26.8262411 C63.4787234,26.7659574 63.177305,30.0212766 61.8510638,31.287234 C61.5496454,30.322695 62.212766,29.1170213 62.4539007,28.0319149 C60.7056738,29.7801418 60.8262411,31.8297872 61.1879433,33.5177305 C62.4539007,34.0602837 64.0815603,33.1560284 65.4680851,32.1914894 C66.8546099,31.1666667 68.1808511,30.0815603 69.3865248,28.8758865 C69.5673759,29.1170213 69.3865248,29.4787234 69.6276596,29.6595745 C67.8191489,31.5886525 67.4574468,34.1808511 65.8297872,35.9893617 C65.7695035,36.1099291 65.9503546,36.1702128 66.070922,36.2907801 C65.287234,36.7730496 64.6241135,37.5567376 63.7198582,37.3156028 C63.2978723,37.677305 62.9361702,38.1595745 62.393617,37.7978723 C62.5744681,37.6170213 63.0567376,37.5567376 62.9964539,37.2553191 C61.9716312,37.4361702 60.9468085,37.3758865 59.9822695,37.0141844 C59.4397163,36.8333333 59.5,36.4113475 59.0780142,35.8687943 C58.4751773,35.1453901 57.6312057,34.7836879 58.1134752,33.9397163 C57.570922,33.7588652 57.8723404,33.3971631 57.4503546,33.2163121 C57.6914894,32.9751773 57.8120567,32.6737589 57.8120567,32.3723404 C57.3297872,31.106383 58.0531915,29.6595745 58.0531915,28.3333333 C59.0177305,26.3439716 60.2234043,23.9929078 61.0070922,22.2446809 C61.6702128,21.822695 61.5496454,21.3404255 62.212766,20.5567376 C62.393617,20.3156028 62.1524823,20.1950355 62.0921986,20.0141844 C63.358156,18.4468085 64.141844,16.7588652 65.4680851,15.4326241 C66.070922,13.9255319 68,13.4432624 69.0851064,12.177305 C69.6879433,12.2978723 70.1099291,11.9361702 70.6524823,11.8758865 C70.9539007,11.9964539 70.6524823,12.1170213 70.5319149,12.177305 C70.7730496,12.177305 70.893617,12.5992908 71.4361702,12.9609929 C73.0035461,13.2624113 72.9432624,14.8900709 72.7624113,15.8546099" id="Path"></path> <path d="M62.9964539,30.9255319 C63.2375887,31.106383 62.8156028,31.5886525 62.6347518,31.6489362 C62.4539007,31.4680851 62.8758865,31.1666667 62.9964539,30.9255319" id="Path"></path> <path d="M59.6205674,22.3652482 C59.8014184,22.7269504 59.1985816,23.2092199 58.9574468,23.6312057 C58.8368794,23.2092199 59.3191489,22.5460993 59.6205674,22.3652482" id="Path"></path> <path d="M4.94326241,21.4007092 C5.06382979,20.9184397 5.78723404,20.3758865 5.66666667,19.9539007 C5.30496454,20.4964539 4.82269504,20.9787234 4.94326241,21.4007092 M10.8510638,37.0141844 C12.7198582,34.6028369 14.9503546,32.6737589 16.0957447,29.7198582 C14.4078014,32.0106383 11.8758865,34.5425532 10.8510638,37.0141844 M15.6737589,31.1666667 C16.0957447,31.5886525 16.5177305,30.4432624 16.3368794,30.2624113 C15.9751773,30.6843972 16.035461,30.8652482 15.6737589,31.1666667 M16.8191489,30.9858156 C17.1808511,30.0815603 17.6631206,29.9609929 18.0248227,29.177305 C17.4219858,29.358156 16.8191489,30.5035461 16.8191489,30.9858156 M37.9787234,16.5177305 C36.8333333,16.2765957 35.4468085,17.8439716 34.1808511,18.2056738 C31.5283688,20.4964539 29.177305,23.2092199 27.3687943,26.1631206 C31.5283688,23.751773 35.1453901,20.4361702 37.9787234,16.5177305 M18.748227,29.358156 C18.8085106,29.2375887 18.8687943,29.177305 18.929078,29.0567376 C18.8687943,29.177305 18.8085106,29.2375887 18.748227,29.358156 M18.748227,29.358156 C17.964539,30.5638298 16.6382979,32.070922 16.2163121,33.2765957 C15.251773,33.8191489 14.4078014,35.3865248 13.3829787,35.8085106 C11.7553191,37.9787234 9.94680851,38.7624113 8.13829787,39.7269504 C6.69148936,39.4858156 5.42553191,40.5106383 3.9787234,40.1489362 C3.55673759,39.9680851 3.85815603,39.6666667 3.91843972,39.3652482 C2.83333333,39.1843972 1.92907801,38.5212766 1.38652482,37.5567376 C0.964539007,36.7730496 0.843971631,35.1453901 0.482269504,34.0602837 C0.241134752,33.5177305 0.120567376,32.9148936 0.0602836879,32.3120567 C0,31.1666667 0.180851064,30.3829787 0,29.4184397 C1.26595745,23.6914894 4.03900709,16.2163121 9.64539007,10.5496454 C11.9964539,8.19858156 14.5886525,5.36524823 17.3617021,4.09929078 C18.0851064,4.09929078 18.9893617,3.79787234 19.9539007,4.28014184 C20.9787234,4.82269504 21.822695,5.60638298 22.4255319,6.57092199 C21.7624113,7.05319149 21.0390071,6.93262411 20.3758865,7.05319149 C19.7730496,7.4751773 19.1099291,7.83687943 18.3865248,8.07801418 C14.4680851,10.9716312 10.6099291,14.2269504 7.05319149,19.4113475 C7.11347518,20.6170213 6.32978723,21.3404255 5.78723404,22.5460993 C5.36524823,23.570922 5.06382979,24.5957447 4.76241135,25.6205674 C4.03900709,27.429078 3.55673759,29.358156 3.31560284,31.3475177 C3.4964539,31.4680851 3.61702128,30.9858156 3.85815603,31.287234 C3.13475177,31.9503546 3.85815603,32.3120567 3.13475177,32.9751773 C3.37588652,34.1205674 3.55673759,35.2659574 3.55673759,36.4716312 C5.30496454,36.8333333 6.87234043,34.7836879 8.92198582,33.2163121 C9.28368794,32.9148936 9.88652482,32.5531915 10.6099291,31.9503546 C13.322695,29.5992908 17.0602837,25.1985816 18.5070922,21.7021277 C16.2765957,21.822695 14.287234,23.8120567 12.1170213,24.4751773 C11.8156028,24.1134752 11.3333333,23.9929078 10.9113475,24.1134752 C9.76595745,23.3297872 10.4893617,22.3049645 9.64539007,21.4609929 C14.1666667,17.4822695 19.0496454,15.8546099 23.8723404,13.5638298 C26.0425532,13.322695 28.212766,12.9007092 30.5035461,13.4432624 C30.8652482,13.7446809 31.287234,13.9255319 31.7092199,14.0460993 C32.251773,14.7695035 32.9751773,15.4326241 32.4929078,16.3368794 C34.8439716,15.070922 37.0744681,12.7198582 39.6666667,12.6595745 C40.8120567,13.4432624 41.9574468,14.2269504 42.1382979,15.1914894 C41.535461,16.5177305 40.8120567,17.8439716 39.9680851,18.9893617 C40.0283688,19.1702128 39.6666667,19.4113475 40.0886525,19.5319149 C39.606383,20.677305 38.822695,21.7021277 37.9184397,22.4858156 C37.858156,22.8475177 38.2198582,22.1843972 38.4007092,22.4858156 C37.9787234,22.9680851 37.5567376,23.9326241 37.0141844,23.8120567 C36.9539007,23.570922 37.1347518,23.2695035 37.3758865,22.9680851 C36.4716312,24.1737589 35.0851064,24.7765957 34.5425532,25.8014184 C34.4822695,25.6808511 34.5425532,25.5 34.6028369,25.3794326 C32.3723404,27.6099291 29.6595745,29.358156 26.7659574,30.5035461 C26.8262411,31.6489362 26.7056738,32.7943262 26.7659574,33.9397163 C29.5992908,33.6382979 32.1312057,31.7092199 34.7836879,30.3829787 C35.748227,29.4184397 36.9539007,28.9361702 37.9184397,28.0921986 C39.1843972,27.0070922 40.0886525,25.9822695 41.4751773,24.5957447 C42.0780142,24.1134752 42.6205674,23.6312057 43.1028369,23.0886525 C43.8865248,21.8829787 44.0673759,20.4361702 44.9113475,19.2304965 C45.5141844,17.2411348 47.2624113,15.0106383 47.0212766,13.141844 C47.8049645,12.8404255 48.7695035,13.6241135 49.7340426,14.3475177 C49.6134752,14.6489362 49.7943262,14.8297872 49.7943262,15.1312057 C50.4574468,14.8297872 51.0602837,14.4680851 51.7234043,14.0460993 C51.7836879,14.1666667 51.7234043,14.3475177 51.6631206,14.4680851 C53.9539007,13.2624113 56.8475177,11.9361702 59.3191489,14.8297872 C59.1382979,15.070922 59.4397163,15.251773 59.1985816,15.4929078 C61.7304965,16.8794326 61.1276596,19.4113475 59.1985816,21.0390071 C58.6560284,22.3652482 57.2695035,23.9929078 56.606383,25.5602837 C55.5815603,27.4893617 53.4716312,28.6950355 53.2907801,30.4432624 C55.0390071,29.1170213 55.822695,26.8262411 57.2695035,24.9574468 C56.9680851,26.464539 55.641844,28.1524823 54.7375887,29.7801418 C54.4964539,29.8404255 54.2553191,30.141844 54.0141844,30.0815603 C53.9539007,31.0460993 53.2304965,31.2269504 53.2907801,32.1312057 C53.4716312,32.251773 53.5921986,31.8900709 53.7730496,32.0106383 C53.9539007,31.2269504 54.7375887,30.3829787 54.9787234,29.9007092 C55.4007092,30.4432624 54.9787234,30.7446809 54.5567376,31.4680851 C55.0992908,31.4680851 55.5212766,30.5638298 56.0638298,30.4432624 C55.2198582,32.3120567 54.3758865,34.3014184 52.6879433,35.3865248 C52.1453901,35.0851064 51.4822695,35.0851064 51,35.3865248 C49.4326241,34.4219858 49.9751773,33.1560284 49.6134752,32.070922 C50.0957447,30.5035461 51.1808511,29.2978723 51.7234043,27.6702128 C52.0851064,26.2234043 52.5673759,24.7765957 53.1099291,23.3900709 C53.3510638,22.9680851 53.4716312,22.4255319 53.4716312,21.9432624 C54.2553191,20.4964539 54.9184397,18.929078 55.4609929,17.3617021 C53.9539007,16.8794326 52.8687943,19.1702128 51.4822695,19.893617 C50.6382979,21.3404255 49.0106383,22.1843972 48.0460993,23.570922 C47.0815603,24.9574468 46.8404255,26.5851064 45.8156028,27.9716312 C45.5744681,28.2730496 45.9361702,28.4539007 45.8758865,28.7553191 C44.9716312,29.0567376 44.7304965,29.7801418 44.248227,30.5638298 C44.6099291,30.5638298 44.7907801,29.6595745 45.1524823,29.9609929 C44.429078,31.4680851 43.2234043,33.3971631 42.7411348,35.3262411 C42.0177305,36.0496454 41.1134752,35.2659574 40.2695035,35.0248227 C39.3049645,34.4219858 39.3652482,33.6382979 38.4609929,32.9751773 C38.641844,32.251773 38.641844,31.4680851 38.5212766,30.6843972 C39.6666667,29.1170213 40.3900709,27.5496454 41.3546099,25.9822695 C39.7269504,27.248227 38.2801418,29.5390071 36.5921986,30.6241135 C36.7730496,30.4432624 36.8333333,30.2624113 36.7730496,30.0815603 C36.712766,30.2624113 36.2304965,30.5035461 36.5921986,30.6843972 C36.4716312,30.7446809 36.3510638,30.8652482 36.2304965,30.9255319 L35.5673759,31.8297872 C35.4468085,31.8900709 35.748227,32.1914894 35.8687943,32.070922 C34,34.7836879 31.3475177,37.6170213 28.5744681,38.1595745 C28.5141844,37.6170213 27.4893617,37.3758865 27.1276596,37.6170213 C26.1028369,36.7730496 25.9822695,37.3758865 24.7765957,36.4113475 L25.0177305,36.1099291 L24.1134752,35.4468085 C22.787234,33.2163121 22.9078014,30.8049645 23.570922,28.2730496 C23.751773,27.9716312 23.9929078,28.0921986 24.1737589,27.8510638 C25.1382979,23.9326241 29.0567376,20.5567376 31.7695035,16.7588652 C31.7695035,16.035461 31.6489362,15.3120567 31.3475177,14.6489362 C29.1170213,13.3829787 27.4893617,16.3368794 25.5602837,17.1205674 C24.7163121,18.5070922 23.570922,18.5070922 22.6666667,19.712766 C22.5460993,19.6524823 22.3652482,19.4716312 22.3049645,19.5921986 C21.8829787,20.4361702 22.4858156,21.1595745 21.4007092,22.1241135 C21.0992908,22.3049645 21.7021277,21.8829787 21.5212766,22.1843972 C21.2801418,22.9680851 20.3758865,23.8120567 19.893617,24.5957447 C20.4964539,24.6560284 20.2553191,24.0531915 20.677305,23.8120567 C20.7978723,23.751773 20.1950355,24.4751773 20.1950355,24.6560284 C20.1347518,24.8368794 20.3758865,24.8368794 20.3156028,24.9574468 C19.8333333,25.9822695 19.1099291,27.0070922 18.8085106,27.6702128 C20.5567376,26.7659574 21.5212766,23.1489362 22.787234,21.4609929 C22.6666667,22.787234 21.9432624,24.2340426 21.2801418,25.6808511 C20.4361702,26.7659574 19.5921986,27.9113475 19.712766,28.8156028 C19.2907801,29.2978723 18.8687943,30.141844 18.3865248,30.4432624 C18.6879433,30.0815603 18.6276596,29.7801418 18.748227,29.358156 M5.54609929,19.2907801 C5.66666667,19.1702128 5.84751773,19.2907801 5.96808511,19.2304965 C7.23404255,17.3014184 8.62056738,15.6737589 9.58510638,14.2269504 C8.13829787,15.5531915 6.81205674,17.8439716 5.54609929,19.2907801" id="Shape"></path> <path d="M45.0921986,29.2978723 C45.4539007,29.4184397 44.9113475,29.8404255 44.8510638,29.8404255 C44.7304965,29.7198582 44.8510638,29.2375887 45.0921986,29.2978723" id="Path"></path> <path d="M40.5106383,18.1453901 C40.751773,17.964539 40.9929078,17.964539 41.2943262,18.2056738 C40.4503546,18.5673759 40.8723404,19.6524823 39.9680851,20.1950355 C39.787234,19.5921986 40.8120567,18.748227 40.5106383,18.1453901" id="Path"></path> <path d="M36.6524823,30.0815603 C36.712766,30.2624113 36.6524823,30.4432624 36.4716312,30.6241135 L36.4113475,30.6241135 C36.1099291,30.5035461 36.5921986,30.2624113 36.6524823,30.0815603" id="Path"></path> <path d="M36.4716312,30.6241135 C36.4716312,30.6241135 36.4716312,30.6843972 36.4716312,30.6241135 L36.4716312,30.6241135 L36.4716312,30.6241135" id="Path"></path> <path d="M18.748227,29.358156 C18.8085106,29.2375887 18.8687943,29.177305 18.929078,29.0567376 C18.8687943,29.177305 18.8085106,29.2375887 18.748227,29.358156" id="Path"></path> <path d="M109.234043,47.3829787 L108.148936,47.6843972 L106.280142,47.7446809 C106.280142,47.7446809 103.507092,47.5035461 105.978723,47.322695 L107.606383,47.322695 L109.234043,47.3829787 Z M102.663121,47.141844 L102.060284,47.4432624 L101.095745,47.5035461 C101.095745,47.5035461 99.6489362,47.2624113 100.914894,47.0815603 L101.819149,47.0815603 L102.663121,47.141844 Z M166.985816,44.8510638 C163.368794,44.429078 159.751773,44.3085106 156.134752,44.4893617 C154.62766,44.5496454 153.120567,44.5496454 151.673759,44.5496454 C147.695035,44.5496454 143.776596,44.5496454 139.797872,44.4893617 C136.783688,44.4893617 133.829787,44.248227 130.815603,44.3687943 C126.173759,44.4893617 121.592199,44.3085106 116.950355,44.3085106 C114.960993,44.3085106 112.971631,44.3085106 110.98227,44.3687943 C108.20922,44.429078 105.496454,44.5496454 102.723404,44.6702128 L93.9219858,44.9716312 C91.3297872,45.0319149 88.7978723,45.212766 86.2056738,45.212766 C82.106383,45.212766 78.0673759,45.1524823 73.9680851,45.1524823 C69.4468085,45.1524823 64.9858156,45.212766 60.464539,45.212766 C55.7021277,45.212766 51,45.212766 46.2375887,45.212766 C45.1524823,45.212766 44.0673759,45.0921986 42.9822695,45.0921986 C40.570922,45.0921986 38.2198582,45.3333333 35.8085106,45.212766 C35.2659574,45.1524823 34.7234043,45.212766 34.1808511,45.212766 C31.4078014,45.2730496 28.6950355,45.2730496 25.9219858,45.3333333 C25.1985816,45.3333333 24.4751773,45.2730496 23.751773,45.2730496 C20.7978723,45.3333333 17.9042553,45.393617 14.9503546,45.393617 C13.8652482,45.393617 12.7801418,45.393617 11.6950355,45.393617 C11.212766,45.393617 10.7304965,45.393617 10.248227,45.4539007 C7.71631206,45.7553191 5.24468085,45.8758865 2.71276596,45.8758865 C2.77304965,46.4184397 2.83333333,46.9609929 2.89361702,47.5035461 C2.95390071,48.106383 3.19503546,48.7092199 3.67730496,49.1312057 C4.46099291,49.3723404 5.18439716,49.4929078 5.96808511,49.5531915 C7.29432624,49.5531915 8.56028369,49.3723404 9.88652482,49.251773 C11.0921986,49.1312057 12.2375887,48.9503546 13.4432624,48.8297872 C13.8652482,48.7695035 14.287234,48.8297872 14.7092199,48.7695035 C17.7836879,48.2269504 20.9184397,48.287234 23.9929078,48.0460993 C24.3546099,48.0460993 24.7163121,48.0460993 25.0780142,48.0460993 C26.0425532,48.0460993 27.0070922,48.106383 27.9716312,48.106383 C31.4680851,47.9858156 34.9042553,47.7446809 38.4007092,48.0460993 C39.787234,48.287234 41.1134752,48.3475177 42.5,48.287234 C42.7411348,48.287234 42.9822695,48.287234 43.2234043,48.3475177 C45.6950355,48.7092199 48.2269504,48.8297872 50.7588652,48.7092199 C51.6631206,48.6489362 52.5673759,48.6489362 53.4716312,48.7092199 C55.2198582,48.8297872 56.9680851,48.7695035 58.6560284,48.5886525 C61.1276596,48.4078014 64.322695,48.106383 67.5780142,47.8652482 C68.0602837,47.8049645 68.5425532,47.8049645 69.0248227,47.8652482 C70.1099291,48.0460993 71.1950355,48.106383 72.2198582,48.0460993 C73.5460993,48.0460993 74.8723404,48.106383 76.1382979,48.2269504 C77.5851064,48.3475177 78.9716312,48.5886525 80.4184397,48.7092199 C84.9397163,49.1312057 89.5212766,49.251773 94.1028369,49.070922 C95.6099291,49.0106383 97.0567376,48.8900709 98.5638298,48.7695035 C100.432624,48.5886525 102.241135,48.5283688 104.109929,48.5283688 C107.425532,48.6489362 110.680851,48.287234 113.996454,48.1666667 C116.166667,48.106383 118.276596,47.9255319 120.446809,47.8049645 C122.496454,47.6843972 124.485816,47.6241135 126.535461,47.5035461 C127.620567,47.4432624 128.705674,47.3829787 129.730496,47.322695 C131.358156,47.2021277 132.925532,47.0815603 134.553191,47.0212766 C135.578014,46.9609929 136.602837,46.9007092 137.567376,46.8404255 C139.617021,46.7801418 141.606383,46.7198582 143.656028,46.5390071 C144.801418,46.4184397 145.946809,46.4184397 147.031915,46.4787234 C148.117021,46.5390071 149.202128,46.5390071 150.287234,46.4787234 C152.216312,46.2978723 154.085106,46.177305 156.014184,46.177305 C156.617021,46.177305 157.219858,46.177305 157.822695,46.1170213 C159.570922,45.9964539 161.01773,45.5744681 162.765957,45.393617 C163.79078,45.2730496 164.574468,45.3333333 165.659574,45.1524823 C166.141844,45.0921986 166.56383,45.0319149 166.985816,44.8510638 L166.985816,44.8510638 Z" id="Shape"></path> <path d="M68.2411348,48.8900709 L69.8687943,48.8900709 L71.4964539,48.9503546 L70.4113475,49.251773 L68.5425532,49.3120567 C68.5425532,49.3120567 65.8297872,49.070922 68.2411348,48.8900709" id="Path"></path> <path d="M29.4184397,48.1666667 L33.1560284,47.6241135 L36.893617,47.2021277 L34.3617021,47.8049645 L30.141844,48.4680851 C30.141844,48.4680851 23.8723404,49.1312057 29.4184397,48.1666667" id="Path"></path> <path d="M77.5851064,48.5886525 L81.322695,48.4680851 L85.0602837,48.4680851 L82.5283688,48.8297872 L78.248227,49.0106383 C78.3085106,49.0106383 71.9787234,48.9503546 77.5851064,48.5886525" id="Path"></path> <path d="M45.4539007,48.7695035 L42.1382979,48.9503546 L38.822695,48.9503546 L41.0531915,48.0460993 L44.7907801,47.6843972 C44.7907801,47.7446809 50.3971631,47.9858156 45.4539007,48.7695035" id="Path"></path> <path d="M22.3049645,48.8900709 L28.5141844,48.8900709 L34.7234043,49.0106383 L30.5035461,49.4929078 L23.4503546,49.6134752 C23.4503546,49.6134752 12.9609929,49.251773 22.3049645,48.8900709" id="Path"></path> <path d="M64.2624113,48.4078014 L65.1666667,48.4078014 L66.070922,48.4680851 L65.4680851,48.7695035 L64.5035461,48.8297872 C64.4432624,48.8900709 62.9361702,48.6489362 64.2624113,48.4078014" id="Path"></path> <path d="M32.3120567,48.287234 L33.1560284,48.287234 L34.0602837,48.3475177 L33.4574468,48.6489362 L32.4326241,48.7092199 C32.4929078,48.7092199 30.9858156,48.5283688 32.3120567,48.287234" id="Path"></path> <path d="M14.4680851,49.251773 L15.3723404,49.251773 L16.2163121,49.3120567 L15.6134752,49.6134752 L14.5886525,49.6737589 C14.6489362,49.6737589 13.2021277,49.4326241 14.4680851,49.251773" id="Path"></path> <polygon id="Path" points="60.2234043 57.3297872 63.5992908 57.3297872 65.1666667 65.2269504 65.1666667 65.2269504 66.7943262 57.3297872 70.1099291 57.3297872 70.1099291 68.5425532 68.0602837 68.5425532 68.0602837 59.6205674 68 59.6205674 66.0106383 68.5425532 64.2624113 68.5425532 62.2730496 59.6205674 62.2730496 59.6205674 62.2730496 68.5425532 60.2234043 68.5425532"></polygon> <polygon id="Path" points="78.4893617 57.3297872 78.4893617 59.1985816 74.5106383 59.1985816 74.5106383 61.8510638 78.248227 61.8510638 78.248227 63.7198582 74.5106383 63.7198582 74.5106383 66.7340426 78.6702128 66.7340426 78.6702128 68.6028369 72.2801418 68.6028369 72.2801418 57.3297872"></polygon> <polygon id="Path" points="79.8156028 57.3297872 82.287234 57.3297872 83.7340426 60.9468085 85.1808511 57.3297872 87.6524823 57.3297872 85.0602837 62.8758865 87.8333333 68.5425532 85.3014184 68.5425532 83.6737589 64.7446809 82.106383 68.5425532 79.5744681 68.5425532 82.3475177 62.8758865"></polygon> <polygon id="Path" points="89.3404255 68.5425532 89.3404255 57.3297872 91.570922 57.3297872 91.570922 68.5425532"></polygon> <path d="M98.5638298,61.1276596 C98.5638298,59.5 98.2624113,58.7765957 97.2375887,58.7765957 C96.0921986,58.7765957 95.8510638,59.9219858 95.8510638,63.0567376 C95.8510638,66.4326241 96.3333333,67.035461 97.2978723,67.035461 C98.0815603,67.035461 98.6843972,66.6134752 98.6843972,64.2021277 L100.914894,64.2021277 C100.914894,66.6134752 100.312057,68.7234043 97.358156,68.7234043 C93.9822695,68.7234043 93.5602837,66.3120567 93.5602837,62.9361702 C93.5602837,59.5602837 93.9822695,57.1489362 97.358156,57.1489362 C100.553191,57.1489362 100.794326,59.5 100.794326,61.1276596 L98.5638298,61.1276596 Z" id="Path"></path> <path d="M106.219858,57.1489362 C109.595745,57.1489362 110.01773,59.5602837 110.01773,62.9361702 C110.01773,66.3120567 109.595745,68.7234043 106.219858,68.7234043 C102.843972,68.7234043 102.421986,66.3120567 102.421986,62.9361702 C102.421986,59.5602837 102.843972,57.1489362 106.219858,57.1489362 Z M106.219858,67.0957447 C107.546099,67.0957447 107.787234,65.9503546 107.787234,62.9361702 C107.787234,59.9219858 107.546099,58.7765957 106.219858,58.7765957 C104.893617,58.7765957 104.652482,59.9219858 104.652482,62.9361702 C104.712766,65.9503546 104.893617,67.0957447 106.219858,67.0957447 Z" id="Shape"></path> </g> </g> </svg>